STARTFONT 2.1
COMMENT converted Oberon font (using FontToBDF by R.Crelier 10.1.91)
FONT Times14.Scn.Fnt
SIZE 14 75 75
FONTBOUNDINGBOX  13 16 0 -4
STARTPROPERTIES 3
FONT_ASCENT 12
FONT_DESCENT 4
DEFAULT_CHAR 0
ENDPROPERTIES
CHARS 121
STARTCHAR c0
ENCODING -1 0
SWIDTH 0 0
DWIDTH 0 0
BBX 0 0 0 0
BITMAP
ENDCHAR
STARTCHAR c9
ENCODING -1 9
SWIDTH 387 0
DWIDTH 12 0
BBX 0 0 0 0
BITMAP
ENDCHAR
STARTCHAR c32
ENCODING -1 32
SWIDTH 96 0
DWIDTH 3 0
BBX 0 0 0 0
BITMAP
ENDCHAR
STARTCHAR c33
ENCODING -1 33
SWIDTH 161 0
DWIDTH 5 0
BBX 1 10 2 0
BITMAP
80
80
80
80
80
80
00
00
80
80
ENDCHAR
STARTCHAR c34
ENCODING -1 34
SWIDTH 193 0
DWIDTH 6 0
BBX 3 3 1 7
BITMAP
A0
A0
A0
ENDCHAR
STARTCHAR c35
ENCODING -1 35
SWIDTH 290 0
DWIDTH 9 0
BBX 8 10 0 0
BITMAP
12
12
12
7F
24
24
FE
48
48
48
ENDCHAR
STARTCHAR c36
ENCODING -1 36
SWIDTH 290 0
DWIDTH 9 0
BBX 6 14 1 -2
BITMAP
10
10
7C
94
94
90
70
38
24
A4
A4
F8
20
20
ENDCHAR
STARTCHAR c37
ENCODING -1 37
SWIDTH 354 0
DWIDTH 11 0
BBX 9 10 1 0
BITMAP
6200
9200
9400
9400
6800
0B00
1480
1480
2480
2300
ENDCHAR
STARTCHAR c38
ENCODING -1 38
SWIDTH 387 0
DWIDTH 12 0
BBX 9 10 1 0
BITMAP
1800
2400
2400
1800
3380
4900
8600
8200
8500
7980
ENDCHAR
STARTCHAR c39
ENCODING -1 39
SWIDTH 96 0
DWIDTH 3 0
BBX 1 3 1 7
BITMAP
80
80
80
ENDCHAR
STARTCHAR c40
ENCODING -1 40
SWIDTH 161 0
DWIDTH 5 0
BBX 4 14 0 -3
BITMAP
10
20
40
40
80
80
80
80
80
80
40
40
20
10
ENDCHAR
STARTCHAR c41
ENCODING -1 41
SWIDTH 161 0
DWIDTH 5 0
BBX 4 14 0 -3
BITMAP
80
40
20
20
10
10
10
10
10
10
20
20
40
80
ENDCHAR
STARTCHAR c42
ENCODING -1 42
SWIDTH 258 0
DWIDTH 8 0
BBX 7 8 0 0
BITMAP
10
92
54
38
38
54
92
10
ENDCHAR
STARTCHAR c43
ENCODING -1 43
SWIDTH 258 0
DWIDTH 8 0
BBX 7 9 0 0
BITMAP
10
10
10
10
FE
10
10
10
10
ENDCHAR
STARTCHAR c44
ENCODING -1 44
SWIDTH 96 0
DWIDTH 3 0
BBX 2 4 0 -2
BITMAP
40
40
40
80
ENDCHAR
STARTCHAR c45
ENCODING -1 45
SWIDTH 161 0
DWIDTH 5 0
BBX 4 1 0 4
BITMAP
F0
ENDCHAR
STARTCHAR c46
ENCODING -1 46
SWIDTH 96 0
DWIDTH 3 0
BBX 1 2 1 0
BITMAP
80
80
ENDCHAR
STARTCHAR c47
ENCODING -1 47
SWIDTH 225 0
DWIDTH 7 0
BBX 5 10 1 0
BITMAP
08
08
10
10
20
20
40
40
80
80
ENDCHAR
STARTCHAR c48
ENCODING -1 48
SWIDTH 225 0
DWIDTH 7 0
BBX 6 10 0 0
BITMAP
38
4C
84
84
84
84
84
84
C8
70
ENDCHAR
STARTCHAR c49
ENCODING -1 49
SWIDTH 225 0
DWIDTH 7 0
BBX 5 10 1 0
BITMAP
20
E0
20
20
20
20
20
20
20
F8
ENDCHAR
STARTCHAR c50
ENCODING -1 50
SWIDTH 225 0
DWIDTH 7 0
BBX 6 10 0 0
BITMAP
78
84
04
04
08
10
20
40
84
FC
ENDCHAR
STARTCHAR c51
ENCODING -1 51
SWIDTH 225 0
DWIDTH 7 0
BBX 6 10 0 0
BITMAP
78
84
04
08
70
08
04
04
88
F0
ENDCHAR
STARTCHAR c52
ENCODING -1 52
SWIDTH 225 0
DWIDTH 7 0
BBX 7 10 0 0
BITMAP
08
18
28
48
48
88
FE
08
08
1C
ENDCHAR
STARTCHAR c53
ENCODING -1 53
SWIDTH 225 0
DWIDTH 7 0
BBX 6 10 0 0
BITMAP
7C
40
80
80
F8
0C
04
04
88
F0
ENDCHAR
STARTCHAR c54
ENCODING -1 54
SWIDTH 225 0
DWIDTH 7 0
BBX 6 10 0 0
BITMAP
1C
20
40
40
B8
CC
84
84
C8
70
ENDCHAR
STARTCHAR c55
ENCODING -1 55
SWIDTH 225 0
DWIDTH 7 0
BBX 7 10 0 0
BITMAP
FE
04
08
08
10
10
20
20
40
40
ENDCHAR
STARTCHAR c56
ENCODING -1 56
SWIDTH 225 0
DWIDTH 7 0
BBX 6 10 0 0
BITMAP
78
84
84
88
70
38
44
84
84
78
ENDCHAR
STARTCHAR c57
ENCODING -1 57
SWIDTH 225 0
DWIDTH 7 0
BBX 6 10 0 0
BITMAP
38
4C
84
84
CC
74
08
08
10
E0
ENDCHAR
STARTCHAR c58
ENCODING -1 58
SWIDTH 129 0
DWIDTH 4 0
BBX 1 7 2 0
BITMAP
80
80
00
00
00
80
80
ENDCHAR
STARTCHAR c59
ENCODING -1 59
SWIDTH 129 0
DWIDTH 4 0
BBX 2 9 1 -2
BITMAP
40
40
00
00
00
40
40
40
80
ENDCHAR
STARTCHAR c60
ENCODING -1 60
SWIDTH 290 0
DWIDTH 9 0
BBX 8 8 0 0
BITMAP
03
0C
30
C0
C0
30
0C
03
ENDCHAR
STARTCHAR c61
ENCODING -1 61
SWIDTH 258 0
DWIDTH 8 0
BBX 7 4 0 2
BITMAP
FE
00
00
FE
ENDCHAR
STARTCHAR c62
ENCODING -1 62
SWIDTH 290 0
DWIDTH 9 0
BBX 8 8 1 0
BITMAP
C0
30
0C
03
03
0C
30
C0
ENDCHAR
STARTCHAR c63
ENCODING -1 63
SWIDTH 225 0
DWIDTH 7 0
BBX 5 10 1 0
BITMAP
70
88
08
10
20
20
00
00
20
20
ENDCHAR
STARTCHAR c64
ENCODING -1 64
SWIDTH 451 0
DWIDTH 14 0
BBX 11 12 1 -2
BITMAP
1F80
2040
4720
8920
9120
9120
9120
9320
8D20
40C0
2000
1F00
ENDCHAR
STARTCHAR c65
ENCODING -1 65
SWIDTH 322 0
DWIDTH 10 0
BBX 9 10 0 0
BITMAP
0800
0800
1400
1400
2200
2200
3E00
4100
4100
E380
ENDCHAR
STARTCHAR c66
ENCODING -1 66
SWIDTH 322 0
DWIDTH 10 0
BBX 7 10 1 0
BITMAP
FC
42
42
42
7C
42
42
42
42
FC
ENDCHAR
STARTCHAR c67
ENCODING -1 67
SWIDTH 354 0
DWIDTH 11 0
BBX 8 10 1 0
BITMAP
3D
43
81
81
80
80
80
80
41
3E
ENDCHAR
STARTCHAR c68
ENCODING -1 68
SWIDTH 387 0
DWIDTH 12 0
BBX 9 10 1 0
BITMAP
FE00
4100
4080
4080
4080
4080
4080
4080
4100
FE00
ENDCHAR
STARTCHAR c69
ENCODING -1 69
SWIDTH 322 0
DWIDTH 10 0
BBX 7 10 1 0
BITMAP
FE
42
42
48
78
48
42
42
42
FE
ENDCHAR
STARTCHAR c70
ENCODING -1 70
SWIDTH 290 0
DWIDTH 9 0
BBX 7 10 1 0
BITMAP
FE
42
42
48
78
48
40
40
40
E0
ENDCHAR
STARTCHAR c71
ENCODING -1 71
SWIDTH 354 0
DWIDTH 11 0
BBX 9 10 1 0
BITMAP
3D00
4300
8100
8000
8000
8380
8100
8100
4300
3C00
ENDCHAR
STARTCHAR c72
ENCODING -1 72
SWIDTH 387 0
DWIDTH 12 0
BBX 9 10 1 0
BITMAP
E380
4100
4100
4100
7F00
4100
4100
4100
4100
E380
ENDCHAR
STARTCHAR c73
ENCODING -1 73
SWIDTH 193 0
DWIDTH 6 0
BBX 3 10 1 0
BITMAP
E0
40
40
40
40
40
40
40
40
E0
ENDCHAR
STARTCHAR c74
ENCODING -1 74
SWIDTH 193 0
DWIDTH 6 0
BBX 4 10 0 0
BITMAP
70
20
20
20
20
20
20
20
A0
C0
ENDCHAR
STARTCHAR c75
ENCODING -1 75
SWIDTH 322 0
DWIDTH 10 0
BBX 8 10 1 0
BITMAP
E7
42
44
48
50
50
48
44
42
E3
ENDCHAR
STARTCHAR c76
ENCODING -1 76
SWIDTH 290 0
DWIDTH 9 0
BBX 7 10 1 0
BITMAP
E0
40
40
40
40
40
40
42
42
FE
ENDCHAR
STARTCHAR c77
ENCODING -1 77
SWIDTH 451 0
DWIDTH 14 0
BBX 11 10 1 0
BITMAP
E0E0
60C0
5140
5140
5140
4A40
4A40
4A40
4440
E4E0
ENDCHAR
STARTCHAR c78
ENCODING -1 78
SWIDTH 387 0
DWIDTH 12 0
BBX 9 10 1 0
BITMAP
E380
6100
5100
5100
4900
4500
4500
4300
4100
E100
ENDCHAR
STARTCHAR c79
ENCODING -1 79
SWIDTH 387 0
DWIDTH 12 0
BBX 9 10 1 0
BITMAP
3E00
4100
8080
8080
8080
8080
8080
8080
4100
3E00
ENDCHAR
STARTCHAR c80
ENCODING -1 80
SWIDTH 290 0
DWIDTH 9 0
BBX 7 10 1 0
BITMAP
FC
42
42
42
7C
40
40
40
40
E0
ENDCHAR
STARTCHAR c81
ENCODING -1 81
SWIDTH 387 0
DWIDTH 12 0
BBX 9 12 1 -2
BITMAP
3E00
4100
8080
8080
8080
8080
8080
8080
4100
3E00
0200
0180
ENDCHAR
STARTCHAR c82
ENCODING -1 82
SWIDTH 322 0
DWIDTH 10 0
BBX 8 10 1 0
BITMAP
FC
42
42
42
7C
48
44
44
42
E3
ENDCHAR
STARTCHAR c83
ENCODING -1 83
SWIDTH 290 0
DWIDTH 9 0
BBX 6 10 1 0
BITMAP
7C
84
84
80
60
18
04
84
84
F8
ENDCHAR
STARTCHAR c84
ENCODING -1 84
SWIDTH 290 0
DWIDTH 9 0
BBX 9 10 0 0
BITMAP
FF80
8880
8880
0800
0800
0800
0800
0800
0800
3E00
ENDCHAR
STARTCHAR c85
ENCODING -1 85
SWIDTH 387 0
DWIDTH 12 0
BBX 9 10 1 0
BITMAP
E380
4100
4100
4100
4100
4100
4100
4100
2200
1C00
ENDCHAR
STARTCHAR c86
ENCODING -1 86
SWIDTH 322 0
DWIDTH 10 0
BBX 9 10 0 0
BITMAP
E380
4100
4100
2200
2200
2200
1400
1400
0800
0800
ENDCHAR
STARTCHAR c87
ENCODING -1 87
SWIDTH 451 0
DWIDTH 14 0
BBX 13 10 0 0
BITMAP
E738
4210
4210
4220
2520
2520
2940
2940
1080
1080
ENDCHAR
STARTCHAR c88
ENCODING -1 88
SWIDTH 322 0
DWIDTH 10 0
BBX 9 10 0 0
BITMAP
E380
4100
2200
1400
0800
0800
1400
2200
4100
E380
ENDCHAR
STARTCHAR c89
ENCODING -1 89
SWIDTH 290 0
DWIDTH 9 0
BBX 9 10 0 0
BITMAP
E380
4100
2200
2200
1400
0800
0800
0800
0800
3E00
ENDCHAR
STARTCHAR c90
ENCODING -1 90
SWIDTH 322 0
DWIDTH 10 0
BBX 7 10 1 0
BITMAP
FE
84
88
08
10
10
20
22
42
FE
ENDCHAR
STARTCHAR c91
ENCODING -1 91
SWIDTH 161 0
DWIDTH 5 0
BBX 3 14 1 -3
BITMAP
E0
80
80
80
80
80
80
80
80
80
80
80
80
E0
ENDCHAR
STARTCHAR c92
ENCODING -1 92
SWIDTH 225 0
DWIDTH 7 0
BBX 5 10 0 0
BITMAP
80
80
40
40
20
20
10
10
08
08
ENDCHAR
STARTCHAR c93
ENCODING -1 93
SWIDTH 161 0
DWIDTH 5 0
BBX 3 14 0 -3
BITMAP
E0
20
20
20
20
20
20
20
20
20
20
20
20
E0
ENDCHAR
STARTCHAR c94
ENCODING -1 94
SWIDTH 258 0
DWIDTH 8 0
BBX 7 9 0 0
BITMAP
10
38
54
92
10
10
10
10
10
ENDCHAR
STARTCHAR c95
ENCODING -1 95
SWIDTH 258 0
DWIDTH 8 0
BBX 7 1 0 4
BITMAP
FE
ENDCHAR
STARTCHAR c96
ENCODING -1 96
SWIDTH 258 0
DWIDTH 8 0
BBX 3 3 2 9
BITMAP
80
40
20
ENDCHAR
STARTCHAR c97
ENCODING -1 97
SWIDTH 258 0
DWIDTH 8 0
BBX 6 8 1 0
BITMAP
78
88
08
38
C8
88
98
EC
ENDCHAR
STARTCHAR c98
ENCODING -1 98
SWIDTH 290 0
DWIDTH 9 0
BBX 7 11 0 0
BITMAP
C0
40
40
5C
66
42
42
42
42
44
78
ENDCHAR
STARTCHAR c99
ENCODING -1 99
SWIDTH 258 0
DWIDTH 8 0
BBX 6 8 1 0
BITMAP
3C
44
80
80
80
80
C4
78
ENDCHAR
STARTCHAR c100
ENCODING -1 100
SWIDTH 290 0
DWIDTH 9 0
BBX 7 11 1 0
BITMAP
0C
04
04
3C
44
84
84
84
84
CC
76
ENDCHAR
STARTCHAR c101
ENCODING -1 101
SWIDTH 258 0
DWIDTH 8 0
BBX 6 8 1 0
BITMAP
38
44
84
FC
80
80
C4
78
ENDCHAR
STARTCHAR c102
ENCODING -1 102
SWIDTH 161 0
DWIDTH 5 0
BBX 5 11 0 0
BITMAP
38
48
40
F8
40
40
40
40
40
40
F0
ENDCHAR
STARTCHAR c103
ENCODING -1 103
SWIDTH 225 0
DWIDTH 7 0
BBX 6 11 0 -3
BITMAP
7C
88
88
88
70
40
78
84
84
84
78
ENDCHAR
STARTCHAR c104
ENCODING -1 104
SWIDTH 290 0
DWIDTH 9 0
BBX 8 11 0 0
BITMAP
C0
40
40
4C
52
62
42
42
42
42
E7
ENDCHAR
STARTCHAR c105
ENCODING -1 105
SWIDTH 129 0
DWIDTH 4 0
BBX 3 12 0 0
BITMAP
40
40
00
00
C0
40
40
40
40
40
40
E0
ENDCHAR
STARTCHAR c106
ENCODING -1 106
SWIDTH 129 0
DWIDTH 4 0
BBX 2 15 0 -3
BITMAP
40
40
00
00
C0
40
40
40
40
40
40
40
40
40
80
ENDCHAR
STARTCHAR c107
ENCODING -1 107
SWIDTH 258 0
DWIDTH 8 0
BBX 7 11 0 0
BITMAP
C0
40
40
4E
44
48
70
50
48
44
E6
ENDCHAR
STARTCHAR c108
ENCODING -1 108
SWIDTH 129 0
DWIDTH 4 0
BBX 3 11 0 0
BITMAP
C0
40
40
40
40
40
40
40
40
40
E0
ENDCHAR
STARTCHAR c109
ENCODING -1 109
SWIDTH 451 0
DWIDTH 14 0
BBX 13 8 0 0
BITMAP
CE70
5290
6310
4210
4210
4210
4210
E738
ENDCHAR
STARTCHAR c110
ENCODING -1 110
SWIDTH 290 0
DWIDTH 9 0
BBX 8 8 0 0
BITMAP
CE
52
62
42
42
42
42
E7
ENDCHAR
STARTCHAR c111
ENCODING -1 111
SWIDTH 290 0
DWIDTH 9 0
BBX 6 8 1 0
BITMAP
38
4C
84
84
84
84
C8
70
ENDCHAR
STARTCHAR c112
ENCODING -1 112
SWIDTH 290 0
DWIDTH 9 0
BBX 7 11 0 -3
BITMAP
DC
66
42
42
42
42
64
58
40
40
E0
ENDCHAR
STARTCHAR c113
ENCODING -1 113
SWIDTH 290 0
DWIDTH 9 0
BBX 7 11 1 -3
BITMAP
3C
44
84
84
84
84
8C
74
04
04
0E
ENDCHAR
STARTCHAR c114
ENCODING -1 114
SWIDTH 193 0
DWIDTH 6 0
BBX 5 8 0 0
BITMAP
D8
68
40
40
40
40
40
E0
ENDCHAR
STARTCHAR c115
ENCODING -1 115
SWIDTH 193 0
DWIDTH 6 0
BBX 5 8 0 0
BITMAP
78
88
80
E0
38
08
88
F0
ENDCHAR
STARTCHAR c116
ENCODING -1 116
SWIDTH 161 0
DWIDTH 5 0
BBX 5 10 0 0
BITMAP
40
40
F8
40
40
40
40
40
48
30
ENDCHAR
STARTCHAR c117
ENCODING -1 117
SWIDTH 290 0
DWIDTH 9 0
BBX 8 8 0 0
BITMAP
C6
42
42
42
42
46
4A
73
ENDCHAR
STARTCHAR c118
ENCODING -1 118
SWIDTH 258 0
DWIDTH 8 0
BBX 8 8 0 0
BITMAP
E7
42
44
24
28
28
10
10
ENDCHAR
STARTCHAR c119
ENCODING -1 119
SWIDTH 387 0
DWIDTH 12 0
BBX 12 8 0 0
BITMAP
EE70
4420
4440
2640
2A80
2A80
1100
1100
ENDCHAR
STARTCHAR c120
ENCODING -1 120
SWIDTH 258 0
DWIDTH 8 0
BBX 7 8 0 0
BITMAP
EE
44
28
10
10
28
44
EE
ENDCHAR
STARTCHAR c121
ENCODING -1 121
SWIDTH 258 0
DWIDTH 8 0
BBX 8 11 0 -3
BITMAP
E7
42
44
24
28
28
10
10
20
20
C0
ENDCHAR
STARTCHAR c122
ENCODING -1 122
SWIDTH 225 0
DWIDTH 7 0
BBX 6 8 0 0
BITMAP
FC
88
90
10
20
24
44
FC
ENDCHAR
STARTCHAR c123
ENCODING -1 123
SWIDTH 161 0
DWIDTH 5 0
BBX 4 14 0 -3
BITMAP
30
40
40
40
40
40
80
40
40
40
40
40
40
30
ENDCHAR
STARTCHAR c124
ENCODING -1 124
SWIDTH 193 0
DWIDTH 6 0
BBX 1 14 2 -3
BITMAP
80
80
80
80
80
80
80
80
80
80
80
80
80
80
ENDCHAR
STARTCHAR c125
ENCODING -1 125
SWIDTH 161 0
DWIDTH 5 0
BBX 5 14 0 -3
BITMAP
C0
20
20
20
20
20
18
20
20
20
20
20
20
C0
ENDCHAR
STARTCHAR c126
ENCODING -1 126
SWIDTH 290 0
DWIDTH 9 0
BBX 8 4 0 2
BITMAP
71
91
89
8E
ENDCHAR
STARTCHAR c128
ENCODING -1 128
SWIDTH 322 0
DWIDTH 10 0
BBX 9 11 0 0
BITMAP
2200
0800
0800
1400
1400
2200
2200
3E00
4100
4100
E380
ENDCHAR
STARTCHAR c129
ENCODING -1 129
SWIDTH 387 0
DWIDTH 12 0
BBX 9 12 1 0
BITMAP
2200
0000
3E00
4100
8080
8080
8080
8080
8080
8080
4100
3E00
ENDCHAR
STARTCHAR c130
ENCODING -1 130
SWIDTH 387 0
DWIDTH 12 0
BBX 9 12 1 0
BITMAP
2200
0000
E380
4100
4100
4100
4100
4100
4100
4100
2200
1C00
ENDCHAR
STARTCHAR c131
ENCODING -1 131
SWIDTH 258 0
DWIDTH 8 0
BBX 6 11 1 0
BITMAP
48
48
00
78
88
08
38
C8
88
98
EC
ENDCHAR
STARTCHAR c132
ENCODING -1 132
SWIDTH 290 0
DWIDTH 9 0
BBX 6 11 1 0
BITMAP
48
48
00
38
4C
84
84
84
84
C8
70
ENDCHAR
STARTCHAR c133
ENCODING -1 133
SWIDTH 290 0
DWIDTH 9 0
BBX 8 11 0 0
BITMAP
24
24
00
C6
42
42
42
42
46
4A
73
ENDCHAR
STARTCHAR c134
ENCODING -1 134
SWIDTH 258 0
DWIDTH 8 0
BBX 6 12 1 0
BITMAP
20
50
88
00
78
88
08
38
C8
88
98
EC
ENDCHAR
STARTCHAR c135
ENCODING -1 135
SWIDTH 258 0
DWIDTH 8 0
BBX 6 12 1 0
BITMAP
30
48
84
00
38
44
84
FC
80
80
C4
78
ENDCHAR
STARTCHAR c136
ENCODING -1 136
SWIDTH 129 0
DWIDTH 4 0
BBX 3 12 0 0
BITMAP
40
A0
00
00
C0
40
40
40
40
40
40
E0
ENDCHAR
STARTCHAR c137
ENCODING -1 137
SWIDTH 290 0
DWIDTH 9 0
BBX 6 12 1 0
BITMAP
30
48
84
00
38
4C
84
84
84
84
C8
70
ENDCHAR
STARTCHAR c138
ENCODING -1 138
SWIDTH 290 0
DWIDTH 9 0
BBX 8 12 0 0
BITMAP
18
24
42
00
C6
42
42
42
42
46
4A
73
ENDCHAR
STARTCHAR c139
ENCODING -1 139
SWIDTH 258 0
DWIDTH 8 0
BBX 6 12 1 0
BITMAP
40
20
10
00
78
88
08
38
C8
88
98
EC
ENDCHAR
STARTCHAR c140
ENCODING -1 140
SWIDTH 258 0
DWIDTH 8 0
BBX 6 12 1 0
BITMAP
20
10
08
00
38
44
84
FC
80
80
C4
78
ENDCHAR
STARTCHAR c141
ENCODING -1 141
SWIDTH 129 0
DWIDTH 4 0
BBX 3 12 0 0
BITMAP
80
40
20
00
C0
40
40
40
40
40
40
E0
ENDCHAR
STARTCHAR c142
ENCODING -1 142
SWIDTH 290 0
DWIDTH 9 0
BBX 6 12 1 0
BITMAP
20
10
08
00
38
4C
84
84
84
84
C8
70
ENDCHAR
STARTCHAR c143
ENCODING -1 143
SWIDTH 290 0
DWIDTH 9 0
BBX 8 12 0 0
BITMAP
20
10
08
00
C6
42
42
42
42
46
4A
73
ENDCHAR
STARTCHAR c144
ENCODING -1 144
SWIDTH 258 0
DWIDTH 8 0
BBX 6 12 1 0
BITMAP
08
10
20
00
38
44
84
FC
80
80
C4
78
ENDCHAR
STARTCHAR c145
ENCODING -1 145
SWIDTH 290 0
DWIDTH 9 0
BBX 6 11 1 0
BITMAP
24
24
00
38
44
84
FC
80
80
C4
78
ENDCHAR
STARTCHAR c146
ENCODING -1 146
SWIDTH 129 0
DWIDTH 4 0
BBX 3 11 0 0
BITMAP
A0
A0
00
C0
40
40
40
40
40
40
E0
ENDCHAR
STARTCHAR c147
ENCODING -1 147
SWIDTH 258 0
DWIDTH 8 0
BBX 6 12 1 -4
BITMAP
3C
44
80
80
80
80
C4
78
00
30
10
20
ENDCHAR
STARTCHAR c148
ENCODING -1 148
SWIDTH 258 0
DWIDTH 8 0
BBX 6 12 1 0
BITMAP
08
10
20
00
78
88
08
38
C8
88
98
EC
ENDCHAR
STARTCHAR c149
ENCODING -1 149
SWIDTH 290 0
DWIDTH 9 0
BBX 8 11 0 0
BITMAP
32
4C
00
CE
52
62
42
42
42
42
E7
ENDCHAR
STARTCHAR c155
ENCODING -1 155
SWIDTH 258 0
DWIDTH 8 0
BBX 8 1 0 4
BITMAP
FF
ENDCHAR
STARTCHAR c159
ENCODING -1 159
SWIDTH 225 0
DWIDTH 7 0
BBX 0 0 0 0
BITMAP
ENDCHAR
ENDFONT
